<?xml version="1.0" encoding="utf-8"?>
<!-- Generator: Adobe Illustrator 17.1.0, SVG Export Plug-In . SVG Version: 6.00 Build 0)  -->
<!DOCTYPE svg PUBLIC "-//W3C//DTD SVG 1.1//EN" "http://www.w3.org/Graphics/SVG/1.1/DTD/svg11.dtd">
<svg version="1.1" id="Layer_1" xmlns="http://www.w3.org/2000/svg" xmlns:xlink="http://www.w3.org/1999/xlink" x="0px" y="0px"
	 width="97px" height="48px" viewBox="0 0 97 48" style="enable-background:new 0 0 97 48;" xml:space="preserve">
<linearGradient id="SVGID_1_" gradientUnits="userSpaceOnUse" x1="-376.0396" y1="325.6596" x2="-374.6202" y2="325.6596" gradientTransform="matrix(-68.2785 0 0 68.2785 -25578.502 -22211.4824)">
	<stop  offset="0" style="stop-color:#AFC036"/>
	<stop  offset="1" style="stop-color:#317B3C"/>
</linearGradient>
<rect y="0" style="fill:url(#SVGID_1_);" width="96.92" height="48.12"/>
<rect x="0.31" y="-6.01" style="fill:none;" width="96.38" height="53.13"/>
<rect x="33.36" y="18.48" style="fill:#FBFAF1;" width="2.9" height="13.81"/>
<path style="fill:#FBFAF1;" d="M45.74,32.3l-2.37-5.29c-0.77-1.73-1.61-3.68-1.87-4.53c0.1,1.13,0.12,2.76,0.14,3.92l0.08,5.9h-2.68
	V18.48h3.08l2.64,5.52c0.7,1.47,1.23,2.92,1.51,3.92c-0.1-1.07-0.2-2.84-0.22-3.8L46,18.48h2.64V32.3H45.74z"/>
<path style="fill:#FBFAF1;" d="M56.86,32.4h-2.52l-4.69-13.91h3.04l2.29,7.2c0.2,0.62,0.42,1.39,0.64,2.41
	c0.18-0.85,0.54-2.01,0.79-2.76l2.35-6.84h2.92L56.86,32.4z"/>
<polygon style="fill:#FBFAF1;" points="62.66,32.3 62.66,18.48 70.53,18.48 70.17,20.75 65.44,20.75 65.44,23.95 69.4,23.95 
	69.4,26.22 65.48,26.22 65.48,29.91 70.71,29.91 70.71,32.3 "/>
<path style="fill:#FBFAF1;" d="M76.22,32.6c-1.57,0-3.32-0.46-4.71-1.25l1.03-2.17c1.29,0.68,2.41,1.11,3.8,1.11
	c1.59,0,2.43-0.65,2.43-1.89c0-0.89-0.58-1.45-1.81-1.79l-1.53-0.42c-1.37-0.38-2.23-0.91-2.72-1.75c-0.38-0.62-0.58-1.33-0.58-2.11
	c0-2.52,2.03-4.27,4.95-4.27c1.69,0,3.4,0.52,4.61,1.39l-1.31,1.99c-1.25-0.76-2.19-1.05-3.22-1.05c-1.13,0-1.93,0.66-1.93,1.59
	c0,0.72,0.38,1.07,1.53,1.39l1.67,0.46c2.27,0.62,3.5,2.07,3.5,4.11C81.92,30.75,79.66,32.6,76.22,32.6"/>
<polygon style="fill:#FBFAF1;" points="92.02,20.79 88.72,20.79 88.72,32.3 85.9,32.3 85.9,20.79 82.52,20.79 82.52,18.48 
	92.48,18.48 "/>
<polygon style="fill:#1D1D1B;" points="58.1,44.79 58.1,34.58 63.66,34.58 63.47,35.75 59.54,35.75 59.54,38.86 62.83,38.86 
	62.83,40.06 59.55,40.06 59.55,43.56 63.82,43.56 63.82,44.79 "/>
<path style="fill:#1D1D1B;" d="M67.63,45c-0.9,0-1.91-0.28-2.77-0.79l0.49-0.98c0.71,0.4,1.56,0.74,2.39,0.74
	c0.81,0,1.38-0.47,1.38-1.2c0-0.64-0.39-1.01-1.24-1.17l-0.9-0.18c-1.17-0.24-1.81-0.96-1.81-2.06c0-1.36,1.08-2.31,2.68-2.31
	c0.9,0,1.73,0.25,2.34,0.61l-0.46,0.96c-0.68-0.34-1.23-0.53-1.82-0.53c-0.79,0-1.29,0.45-1.29,1.11c0,0.53,0.27,0.83,1.05,1.01
	l0.96,0.22c1.36,0.31,1.93,1.1,1.93,2.07C70.55,43.99,69.37,45,67.63,45"/>
<path style="fill:#1D1D1B;" d="M74.51,45c-0.9,0-1.91-0.28-2.77-0.79l0.49-0.98c0.71,0.4,1.56,0.74,2.39,0.74
	c0.81,0,1.38-0.47,1.38-1.2c0-0.64-0.39-1.01-1.24-1.17l-0.9-0.18c-1.17-0.24-1.81-0.96-1.81-2.06c0-1.36,1.08-2.31,2.68-2.31
	c0.9,0,1.73,0.25,2.34,0.61l-0.46,0.96c-0.68-0.34-1.23-0.53-1.82-0.53c-0.79,0-1.29,0.45-1.29,1.11c0,0.53,0.27,0.83,1.05,1.01
	l0.96,0.22c1.36,0.31,1.93,1.1,1.93,2.07C77.43,43.99,76.25,45,74.51,45"/>
<path style="fill:#1D1D1B;" d="M80.44,41.37v0.18c0,0.64,0.09,1.13,0.31,1.48c0.39,0.59,0.99,0.88,1.71,0.88
	c0.7,0,1.29-0.24,1.82-0.71l0.52,0.82c-0.73,0.64-1.6,0.95-2.56,0.95c-2.06,0-3.32-1.5-3.32-3.93c0-1.29,0.25-2.12,0.89-2.88
	c0.59-0.7,1.32-1.02,2.24-1.02c0.83,0,1.5,0.27,2.02,0.8c0.65,0.67,0.89,1.5,0.9,3.2v0.24H80.44z M83.08,38.68
	c-0.24-0.3-0.59-0.52-1.07-0.52c-1.04,0-1.56,0.84-1.56,2.19h3.08C83.54,39.65,83.38,39.05,83.08,38.68"/>
<path style="fill:#1D1D1B;" d="M90.85,44.79c-0.36-0.61-1.38-2.3-1.79-3.01c-0.41,0.73-1.5,2.52-1.81,3.01h-1.69l2.76-4.09
	l-2.19-3.23l1.54-0.19c0.31,0.5,1.02,1.78,1.44,2.49c0.34-0.7,0.95-1.84,1.27-2.4h1.59L89.8,40.7l2.76,4.09H90.85z"/>
<g>
</g>
<g>
</g>
<g>
</g>
<g>
</g>
<g>
</g>
<g>
</g>
</svg>
